<svg xmlns="http://www.w3.org/2000/svg" viewBox="0 0 37.01 37.01"><defs><style>.cls-1{fill:#fff;}.cls-2{fill:#18132d;}</style></defs><g id="Camada_2" data-name="Camada 2"><g id="Background"><circle class="cls-1" cx="18.51" cy="18.51" r="18.51"/><path class="cls-2" d="M28.73,12.17a8.49,8.49,0,0,1-2,.58c.33-.06.81-.65,1-.89a3.76,3.76,0,0,0,.68-1.24s0-.08,0-.1a.1.1,0,0,0-.11,0,10.41,10.41,0,0,1-2.42.92.17.17,0,0,1-.17,0,1.47,1.47,0,0,0-.21-.22,4.56,4.56,0,0,0-1.17-.72,4.11,4.11,0,0,0-1.8-.29,4.47,4.47,0,0,0-1.71.48,4.53,4.53,0,0,0-1.37,1.13,4.09,4.09,0,0,0-.82,1.64,4.44,4.44,0,0,0-.05,1.74c0,.1,0,.11-.08.1A12.92,12.92,0,0,1,10.14,11c-.09-.11-.15-.11-.23,0a4.23,4.23,0,0,0,.72,5c.17.15.33.31.51.45A4.42,4.42,0,0,1,9.54,16c-.1-.06-.15,0-.16.08a4,4,0,0,0,0,.48A4.27,4.27,0,0,0,12,20a2.49,2.49,0,0,0,.53.16A4.79,4.79,0,0,1,11,20.2c-.12,0-.16,0-.12.14a4.44,4.44,0,0,0,3.31,2.77c.15,0,.3,0,.45.07l0,0a5.17,5.17,0,0,1-2.25,1.2,8.17,8.17,0,0,1-3.43.44c-.19,0-.23,0-.28,0s0,.07.06.12a7.34,7.34,0,0,0,.71.42,11.08,11.08,0,0,0,2.29.92,12.23,12.23,0,0,0,11.86-2.77c2.43-2.41,3.28-5.74,3.28-9.08,0-.13.15-.2.24-.27a7.6,7.6,0,0,0,1.62-1.68.54.54,0,0,0,.11-.32h0C28.82,12.11,28.81,12.13,28.73,12.17Z"/></g></g></svg>